<?xml version="1.0" encoding="UTF-8" standalone="no"?>
<svg
  width="200"
  height="200"
  viewBox="0 0 200 200"
  version="1.1"
  id="svg8"
  xmlns="http://www.w3.org/2000/svg"
  xmlns:svg="http://www.w3.org/2000/svg">
  <defs
    id="defs12" />
  <g
    fill="none"
    fill-rule="evenodd"
    id="g16"
    transform="matrix(1.4492754,0,0,1.4492754,27.275291,55.470264)">
    <rect
      width="136.5"
      height="55.5"
      x="-18.06995"
      y="0.4255181"
      fill="#ffffff"
      stroke="#eaeaea"
      stroke-width="1.5"
      rx="4.5"
      id="rect2"
      style="fill:#ffffff;fill-opacity:1;stroke:none;stroke-width:1.50006;stroke-dasharray:none" />
  </g>
  <path
    fill="#d80303"
    d="m 33.740389,111.10254 v -9.99623 q 0,-4.56105 2.12896,-7.26807 2.128959,-2.70702 5.724222,-2.70702 v 0 q 0.90939,0 1.896325,0.16918 0.993985,0.16214 1.755334,0.45118 v 0 -2.953761 Q 44.730614,88.572234 43.856471,88.438293 42.97528,88.304352 42.002444,88.304352 v 0 q -3.242786,0 -5.343548,1.621393 -2.10781,1.621395 -2.685872,4.596295 v 0 H 33.683993 V 88.861265 H 26 v 2.185355 h 5.040417 v 20.05592 z m -7.289218,0 h 14.352852 v -2.18535 H 26.451171 Z M 61.170129,90.88448 v 0 q 2.953755,0 4.617446,2.01617 1.66369,2.00912 1.66369,5.56208 v 0 H 54.726854 q 0,-3.57411 1.713038,-5.57618 1.713036,-2.00207 4.730237,-2.00207 z m 8.924711,14.72648 h -2.685873 q -0.514615,1.62844 -2.086662,2.53783 -1.572046,0.90939 -3.841996,0.90939 v 0 q -3.094746,0 -4.927625,-2.05141 -1.82583,-2.05847 -1.82583,-5.54799 v 0 -0.76135 h 15.46668 V 98.9421 q 0,-3.32738 -1.06448,-5.66078 -1.05743,-2.33339 -3.073597,-3.560012 Q 64.03929,88.48764 61.170129,88.48764 v 0 q -2.749318,0 -4.814832,1.21252 -2.058464,1.20547 -3.200489,3.38378 -1.134975,2.1783 -1.134975,5.11091 v 0 3.24278 q 0,4.75139 2.488486,7.39496 2.488486,2.64358 6.97199,2.64358 v 0 q 2.248802,0 4.060532,-0.7261 1.804681,-0.71905 2.996052,-2.04437 1.184322,-1.31826 1.557947,-3.09474 z"
    id="path4"
    style="stroke-width:0.704953" />
  <path
    fill="#0d1117"
    d="M 97.62328,111.10254 V 95.1424 q 0,-3.30623 -1.22662,-4.97697 -1.233674,-1.67779 -3.665763,-1.67779 v 0 q -1.720087,0 -3.017201,0.90939 -1.304164,0.90939 -1.755334,2.43914 v 0 H 87.669331 Q 87.316854,90.24297 86.231226,89.368832 85.145597,88.48764 83.559452,88.48764 v 0 q -1.52975,0 -2.678824,0.902341 -1.142024,0.895289 -1.579096,2.446189 v 0 h -0.28903 v -2.974905 h -2.453239 v 22.241275 h 2.537834 V 96.21393 q 0,-2.46029 0.958736,-3.87019 0.965786,-1.41696 2.636526,-1.41696 v 0 q 1.586145,0 2.382743,1.20547 0.796597,1.21252 0.796597,3.60936 v 0 15.36093 h 2.537833 V 96.21393 q 0,-2.48144 0.944637,-3.88429 0.937589,-1.40286 2.566031,-1.40286 v 0 q 1.572047,0 2.368643,1.21957 0.796598,1.21957 0.796598,3.60936 v 0 15.34683 z m 13.65495,0.39478 v 0 q 2.51668,0 4.30021,-1.00104 1.79058,-1.00103 2.57308,-2.88325 v 0 h 0.28903 v 3.51066 h 2.60128 V 95.84031 q 0,-3.38378 -2.09371,-5.27306 -2.09372,-1.889273 -5.87932,-1.889273 v 0 q -2.14306,0 -3.89134,0.733152 -1.74123,0.733151 -2.84801,2.009121 -1.10677,1.28301 -1.31122,2.95375 v 0 h 2.68588 q 0.47232,-1.60729 1.86812,-2.47438 1.39581,-0.8671 3.49657,-0.8671 v 0 q 2.56603,0 3.90545,1.26892 1.34646,1.26892 1.34646,3.66576 v 0 2.10781 l -6.45033,0.28903 q -3.6728,0.16214 -5.68897,1.84698 -2.00912,1.68483 -2.00912,4.61744 v 0 q 0,3.01015 1.95272,4.84303 1.94567,1.82583 5.15322,1.82583 z m 0.6556,-2.39684 v 0 q -2.31225,0 -3.64461,-1.14908 -1.33236,-1.14202 -1.33236,-3.12294 v 0 q 0,-4.01118 5.10386,-4.23677 v 0 l 6.25999,-0.26788 v 3.09474 q 0,1.5932 -0.85299,2.88326 -0.84595,1.29007 -2.2911,2.04437 -1.44516,0.7543 -3.24279,0.7543 z m 26.39345,2.00206 v -9.99623 q 0,-4.56105 2.12897,-7.26807 2.12896,-2.70702 5.72422,-2.70702 v 0 q 0.90939,0 1.89632,0.16918 0.99399,0.16214 1.75534,0.45118 v 0 -2.953761 q -0.51462,-0.225585 -1.39581,-0.359526 -0.87414,-0.133941 -1.84698,-0.133941 v 0 q -3.24278,0 -5.3506,1.621393 -2.10076,1.621395 -2.67881,4.596295 v 0 h -0.28904 v -5.660775 h -7.68399 v 2.185355 h 5.04042 v 20.05592 z m -7.28921,0 h 14.35285 v -2.18535 h -14.35285 z m 40.9155,-22.241275 -10.44741,10.468565 h -0.25378 V 80 h -2.69998 v 31.10254 h 2.69998 v -8.42419 l 3.94774,-3.84199 0.66265,-0.64151 9.51687,-9.333585 z m -5.72423,8.092865 -1.95976,1.75534 8.46649,12.39307 H 176 Z"
    id="path6"
    style="stroke-width:0.704953" />
</svg>